<svg width="16" height="16" viewBox="0 0 16 16" fill="none" xmlns="http://www.w3.org/2000/svg">
<g clip-path="url(#clip0_2060_27)">
<path fill-rule="evenodd" clip-rule="evenodd" d="M4.97666 0.710626C5.75866 0.674626 6.00799 0.666626 7.99999 0.666626C9.99199 0.666626 10.2413 0.675293 11.0227 0.710626C11.804 0.745959 12.3373 0.870626 12.804 1.05129C13.2927 1.23596 13.736 1.52463 14.1027 1.89796C14.476 2.26396 14.764 2.70663 14.948 3.19596C15.1293 3.66263 15.2533 4.19596 15.2893 4.97596C15.3253 5.75929 15.3333 6.00863 15.3333 7.99996C15.3333 9.99196 15.3247 10.2413 15.2893 11.0233C15.254 11.8033 15.1293 12.3366 14.948 12.8033C14.764 13.2927 14.4755 13.7361 14.1027 14.1026C13.736 14.476 13.2927 14.764 12.804 14.948C12.3373 15.1293 11.804 15.2533 11.024 15.2893C10.2413 15.3253 9.99199 15.3333 7.99999 15.3333C6.00799 15.3333 5.75866 15.3246 4.97666 15.2893C4.19666 15.254 3.66332 15.1293 3.19666 14.948C2.70727 14.7639 2.26387 14.4755 1.89732 14.1026C1.52424 13.7364 1.23553 13.2932 1.05132 12.804C0.870657 12.3373 0.746656 11.804 0.710656 11.024C0.674656 10.2406 0.666656 9.99129 0.666656 7.99996C0.666656 6.00796 0.675323 5.75863 0.710656 4.97729C0.74599 4.19596 0.870657 3.66263 1.05132 3.19596C1.2358 2.70668 1.52474 2.2635 1.89799 1.89729C2.26402 1.52429 2.70697 1.23559 3.19599 1.05129C3.66266 0.870626 4.19599 0.746626 4.97599 0.710626H4.97666ZM10.9633 2.03063C10.19 1.99529 9.95799 1.98796 7.99999 1.98796C6.04199 1.98796 5.80999 1.99529 5.03666 2.03063C4.32132 2.06329 3.93332 2.18263 3.67466 2.28329C3.33266 2.41663 3.08799 2.57463 2.83132 2.83129C2.58802 3.06799 2.40078 3.35615 2.28332 3.67463C2.18266 3.93329 2.06332 4.32129 2.03066 5.03663C1.99532 5.80996 1.98799 6.04196 1.98799 7.99996C1.98799 9.95796 1.99532 10.19 2.03066 10.9633C2.06332 11.6786 2.18266 12.0666 2.28332 12.3253C2.40066 12.6433 2.58799 12.932 2.83132 13.1686C3.06799 13.412 3.35666 13.5993 3.67466 13.7166C3.93332 13.8173 4.32132 13.9366 5.03666 13.9693C5.80999 14.0046 6.04132 14.012 7.99999 14.012C9.95866 14.012 10.19 14.0046 10.9633 13.9693C11.6787 13.9366 12.0667 13.8173 12.3253 13.7166C12.6673 13.5833 12.912 13.4253 13.1687 13.1686C13.412 12.932 13.5993 12.6433 13.7167 12.3253C13.8173 12.0666 13.9367 11.6786 13.9693 10.9633C14.0047 10.19 14.012 9.95796 14.012 7.99996C14.012 6.04196 14.0047 5.80996 13.9693 5.03663C13.9367 4.32129 13.8173 3.93329 13.7167 3.67463C13.5833 3.33263 13.4253 3.08796 13.1687 2.83129C12.9319 2.58801 12.6438 2.40077 12.3253 2.28329C12.0667 2.18263 11.6787 2.06329 10.9633 2.03063ZM7.06332 10.2606C7.58643 10.4784 8.16891 10.5078 8.71128 10.3438C9.25364 10.1798 9.72225 9.83257 10.0371 9.36145C10.3519 8.89034 10.4934 8.32454 10.4374 7.7607C10.3813 7.19685 10.1313 6.66994 9.72999 6.26996C9.47415 6.01428 9.1648 5.8185 8.82421 5.69672C8.48362 5.57495 8.12028 5.5302 7.76032 5.5657C7.40036 5.60121 7.05276 5.71608 6.74253 5.90205C6.43229 6.08801 6.16715 6.34046 5.96619 6.64119C5.76523 6.94193 5.63345 7.28348 5.58033 7.64127C5.52722 7.99905 5.55409 8.36415 5.65902 8.7103C5.76394 9.05645 5.94431 9.37503 6.18714 9.64311C6.42996 9.91118 6.72921 10.1221 7.06332 10.2606ZM5.33466 5.33463C5.68467 4.98461 6.1002 4.70696 6.55752 4.51753C7.01484 4.32811 7.50499 4.23061 7.99999 4.23061C8.49499 4.23061 8.98514 4.32811 9.44246 4.51753C9.89978 4.70696 10.3153 4.98461 10.6653 5.33463C11.0153 5.68464 11.293 6.10017 11.4824 6.55749C11.6718 7.01481 11.7693 7.50496 11.7693 7.99996C11.7693 8.49496 11.6718 8.98511 11.4824 9.44243C11.293 9.89974 11.0153 10.3153 10.6653 10.6653C9.95843 11.3722 8.99968 11.7693 7.99999 11.7693C7.0003 11.7693 6.04155 11.3722 5.33466 10.6653C4.62777 9.9584 4.23064 8.99965 4.23064 7.99996C4.23064 7.00027 4.62777 6.04152 5.33466 5.33463ZM12.6053 4.79196C12.6921 4.71014 12.7615 4.61175 12.8095 4.50261C12.8576 4.39347 12.8832 4.2758 12.8849 4.15658C12.8867 4.03735 12.8645 3.91899 12.8196 3.8085C12.7748 3.69801 12.7083 3.59763 12.624 3.51332C12.5396 3.429 12.4393 3.36246 12.3288 3.31764C12.2183 3.27281 12.0999 3.25061 11.9807 3.25235C11.8615 3.25409 11.7438 3.27973 11.6347 3.32776C11.5255 3.37579 11.4271 3.44522 11.3453 3.53196C11.1862 3.70065 11.0991 3.92471 11.1025 4.15658C11.1058 4.38845 11.1995 4.60988 11.3634 4.77385C11.5274 4.93783 11.7488 5.03144 11.9807 5.03482C12.2126 5.03821 12.4366 4.95109 12.6053 4.79196Z" fill="#0587FF"/>
</g>
<defs>
<clipPath id="clip0_2060_27">
<rect width="16" height="16" fill="white"/>
</clipPath>
</defs>
</svg>
