<svg width="20" height="20" viewBox="0 0 20 20" fill="none" xmlns="http://www.w3.org/2000/svg">
<path d="M17.7364 6.89649L12.7774 6.17579L10.5606 1.68165C10.5 1.5586 10.4004 1.45899 10.2774 1.39844C9.96877 1.2461 9.59376 1.37305 9.43947 1.68165L7.22267 6.17579L2.26368 6.89649C2.12696 6.91603 2.00196 6.98048 1.90626 7.07814C1.79056 7.19705 1.7268 7.35704 1.729 7.52294C1.7312 7.68885 1.79917 7.84709 1.91798 7.9629L5.50587 11.461L4.65821 16.4004C4.63833 16.5153 4.65105 16.6335 4.69492 16.7415C4.73878 16.8496 4.81204 16.9432 4.90639 17.0117C5.00074 17.0802 5.11241 17.1209 5.22872 17.1292C5.34503 17.1375 5.46135 17.1131 5.56446 17.0586L10 14.7266L14.4356 17.0586C14.5567 17.1231 14.6973 17.1445 14.8321 17.1211C15.1719 17.0625 15.4004 16.7403 15.3418 16.4004L14.4942 11.461L18.0821 7.9629C18.1797 7.8672 18.2442 7.7422 18.2637 7.60548C18.3164 7.26368 18.0781 6.94728 17.7364 6.89649Z" fill="black"/>
</svg>
