<svg width="16" height="16" viewBox="0 0 16 16" fill="none" xmlns="http://www.w3.org/2000/svg">
<path d="M7.93512 3.9873C7.53956 3.9873 7.15288 4.1046 6.82398 4.32436C6.49508 4.54413 6.23874 4.85648 6.08736 5.22194C5.93599 5.58739 5.89638 5.98952 5.97355 6.37748C6.05072 6.76544 6.2412 7.12181 6.52091 7.40151C6.80061 7.68122 7.15698 7.8717 7.54494 7.94887C7.9329 8.02604 8.33503 7.98643 8.70049 7.83506C9.06594 7.68368 9.3783 7.42734 9.59806 7.09844C9.81782 6.76954 9.93512 6.38286 9.93512 5.9873C9.93452 5.45705 9.72361 4.9487 9.34867 4.57376C8.97373 4.19882 8.46537 3.98791 7.93512 3.9873ZM7.93512 6.9873C7.73734 6.9873 7.544 6.92865 7.37955 6.81877C7.2151 6.70889 7.08693 6.55271 7.01124 6.36999C6.93555 6.18726 6.91575 5.98619 6.95433 5.79221C6.99292 5.59823 7.08816 5.42005 7.22801 5.2802C7.36787 5.14034 7.54605 5.0451 7.74003 5.00652C7.93401 4.96793 8.13508 4.98774 8.3178 5.06342C8.50053 5.13911 8.65671 5.26728 8.76659 5.43173C8.87647 5.59618 8.93512 5.78952 8.93512 5.9873C8.93481 6.25242 8.82936 6.5066 8.64189 6.69407C8.45442 6.88154 8.20024 6.98699 7.93512 6.9873Z" fill="#0587FF"/>
<path d="M11.7783 2.14109C10.8281 1.19111 9.55964 0.626776 8.2178 0.557017C6.87595 0.487259 5.55583 0.917019 4.51222 1.76335C3.46861 2.60968 2.77549 3.81259 2.56663 5.13991C2.35777 6.46724 2.64798 7.82487 3.38125 8.95081L7.15959 14.7512C7.24367 14.8803 7.35863 14.9863 7.49406 15.0597C7.62949 15.1331 7.78109 15.1716 7.93513 15.1716C8.08918 15.1716 8.24078 15.1331 8.37621 15.0597C8.51163 14.9863 8.6266 14.8803 8.71068 14.7512L12.4891 8.95081C13.1695 7.90634 13.4702 6.65974 13.3408 5.41995C13.2114 4.18015 12.6597 3.02252 11.7783 2.14109ZM11.6513 8.40496L7.93515 14.1096L4.219 8.40496C3.0815 6.65875 3.32546 4.32187 4.79909 2.84819C5.21092 2.43634 5.69983 2.10965 6.23792 1.88677C6.77601 1.66388 7.35273 1.54916 7.93515 1.54916C8.51757 1.54916 9.09429 1.66388 9.63238 1.88677C10.1705 2.10965 10.6594 2.43634 11.0712 2.84819C12.5448 4.32187 12.7888 6.65875 11.6513 8.40496Z" fill="#0587FF"/>
</svg>
