<svg width="20" height="20" viewBox="0 0 20 20" fill="none" xmlns="http://www.w3.org/2000/svg">
<path d="M9.16665 4.5833C9.16683 5.28478 8.91419 5.96284 8.45503 6.49317C7.99586 7.0235 7.36095 7.37059 6.66665 7.4708V9.5833H11.875C12.3723 9.5833 12.8492 9.38575 13.2008 9.03412C13.5524 8.68249 13.75 8.20558 13.75 7.7083V7.37913C13.0803 7.17728 12.5053 6.74159 12.1299 6.15142C11.7544 5.56124 11.6034 4.85584 11.7044 4.16369C11.8053 3.47153 12.1516 2.83866 12.68 2.38034C13.2084 1.92203 13.8838 1.66875 14.5833 1.66663C15.3216 1.6653 16.033 1.94401 16.5738 2.44655C17.1147 2.94908 17.4449 3.63804 17.4978 4.37445C17.5506 5.11086 17.3222 5.83991 16.8587 6.41455C16.3951 6.98919 15.7309 7.36666 15 7.4708V7.7083C15 8.5371 14.6707 9.33196 14.0847 9.91801C13.4986 10.5041 12.7038 10.8333 11.875 10.8333H6.66665V12.5291C7.37826 12.6318 8.02685 12.9938 8.48792 13.5454C8.949 14.0971 9.19007 14.7996 9.16486 15.5182C9.13965 16.2367 8.84993 16.9206 8.35133 17.4386C7.85272 17.9566 7.18035 18.2722 6.4633 18.3247C5.74625 18.3773 5.03505 18.1632 4.46621 17.7235C3.89737 17.2838 3.51098 16.6495 3.38122 15.9423C3.25146 15.2351 3.38746 14.5049 3.76313 13.8919C4.13879 13.2789 4.72765 12.8262 5.41665 12.6208V7.37913C4.74693 7.17728 4.17198 6.74159 3.79652 6.15142C3.42106 5.56124 3.27007 4.85584 3.37104 4.16369C3.47201 3.47153 3.81823 2.83866 4.34664 2.38034C4.87506 1.92203 5.55051 1.66875 6.24999 1.66663C7.02354 1.66663 7.7654 1.97392 8.31238 2.5209C8.85936 3.06788 9.16665 3.80975 9.16665 4.5833ZM6.24999 6.24996C6.69201 6.24996 7.11594 6.07437 7.4285 5.76181C7.74106 5.44925 7.91665 5.02533 7.91665 4.5833C7.91665 4.14127 7.74106 3.71735 7.4285 3.40479C7.11594 3.09223 6.69201 2.91663 6.24999 2.91663C5.80796 2.91663 5.38404 3.09223 5.07148 3.40479C4.75891 3.71735 4.58332 4.14127 4.58332 4.5833C4.58332 5.02533 4.75891 5.44925 5.07148 5.76181C5.38404 6.07437 5.80796 6.24996 6.24999 6.24996ZM14.5833 6.24996C15.0253 6.24996 15.4493 6.07437 15.7618 5.76181C16.0744 5.44925 16.25 5.02533 16.25 4.5833C16.25 4.14127 16.0744 3.71735 15.7618 3.40479C15.4493 3.09223 15.0253 2.91663 14.5833 2.91663C14.1413 2.91663 13.7174 3.09223 13.4048 3.40479C13.0922 3.71735 12.9167 4.14127 12.9167 4.5833C12.9167 5.02533 13.0922 5.44925 13.4048 5.76181C13.7174 6.07437 14.1413 6.24996 14.5833 6.24996ZM7.91665 15.4166C7.91665 14.9746 7.74106 14.5507 7.4285 14.2381C7.11594 13.9256 6.69201 13.75 6.24999 13.75C5.80796 13.75 5.38404 13.9256 5.07148 14.2381C4.75891 14.5507 4.58332 14.9746 4.58332 15.4166C4.58332 15.8587 4.75891 16.2826 5.07148 16.5951C5.38404 16.9077 5.80796 17.0833 6.24999 17.0833C6.69201 17.0833 7.11594 16.9077 7.4285 16.5951C7.74106 16.2826 7.91665 15.8587 7.91665 15.4166Z" fill="black"/>
</svg>
