<svg
  width="124"
  height="24"
  viewBox="0 0 124 24"
  fill="none"
  xmlns="http://www.w3.org/2000/svg"
>
    <path
    d="M74.5893 19.5227H74.552C74.5688 19.5227 74.58 19.5414 74.5968 19.5433H74.608L74.5893 19.5246V19.5227ZM74.5968 19.5433C74.4232 19.5451 73.9864 19.6366 73.5253 19.6366C72.0693 19.6366 71.5653 18.9646 71.5653 18.0873V12.2427H74.5333C74.7013 12.2427 74.832 12.0934 74.832 11.8881V8.71472C74.832 8.54672 74.6827 8.39739 74.5333 8.39739H71.5653V4.45872C71.5653 4.30939 71.472 4.21606 71.304 4.21606H67.272C67.104 4.21606 67.0107 4.30939 67.0107 4.45872V8.50939C67.0107 8.50939 64.976 9.01339 64.8453 9.03206C64.696 9.06939 64.6027 9.20006 64.6027 9.34939V11.8881C64.6027 12.0934 64.752 12.2427 64.92 12.2427H66.992V18.3654C66.992 22.9201 70.1653 23.3867 72.3307 23.3867C73.32 23.3867 74.5147 23.0694 74.7013 22.9761C74.8133 22.9387 74.8693 22.8081 74.8693 22.6774V19.8774C74.8719 19.798 74.8458 19.7203 74.7957 19.6586C74.7457 19.5969 74.675 19.5553 74.5968 19.5414V19.5433ZM118.829 15.4347C118.829 12.0561 117.467 11.6081 116.029 11.7574C114.909 11.8321 114.013 12.3921 114.013 12.3921V18.9627C114.013 18.9627 114.928 19.5974 116.291 19.6347C118.213 19.6907 118.829 19.0001 118.829 15.4347ZM123.365 15.1361C123.365 21.5387 121.293 23.3681 117.672 23.3681C114.611 23.3681 112.968 21.8187 112.968 21.8187C112.968 21.8187 112.893 22.6774 112.8 22.7894C112.744 22.9014 112.651 22.9387 112.539 22.9387H109.776C109.589 22.9387 109.421 22.7894 109.421 22.6214L109.459 1.88272C109.459 1.71472 109.608 1.56539 109.776 1.56539H113.752C113.92 1.56539 114.069 1.71472 114.069 1.88272V8.92006C114.069 8.92006 115.6 7.93072 117.84 7.93072L117.821 7.89339C120.061 7.89339 123.365 8.73339 123.365 15.1361ZM107.088 8.39739H103.168C102.963 8.39739 102.851 8.54672 102.851 8.75206V18.9067C102.851 18.9067 101.824 19.6347 100.424 19.6347C99.024 19.6347 98.6133 19.0001 98.6133 17.6001V8.73339C98.6133 8.56539 98.464 8.41606 98.296 8.41606H94.3013C94.1333 8.41606 93.984 8.56539 93.984 8.73339V18.2721C93.984 22.3787 96.28 23.4054 99.4347 23.4054C102.029 23.4054 104.139 21.9681 104.139 21.9681C104.139 21.9681 104.232 22.6961 104.288 22.8081C104.325 22.9014 104.456 22.9761 104.587 22.9761H107.088C107.293 22.9761 107.405 22.8267 107.405 22.6587L107.443 8.71472C107.443 8.54672 107.293 8.39739 107.088 8.39739ZM62.848 8.37872H58.872C58.704 8.37872 58.5547 8.54672 58.5547 8.75206V22.4534C58.5547 22.8267 58.7973 22.9574 59.1147 22.9574H62.6987C63.072 22.9574 63.1653 22.7894 63.1653 22.4534V8.69606C63.1653 8.52806 63.016 8.37872 62.848 8.37872ZM60.888 2.06939C59.4507 2.06939 58.312 3.20806 58.312 4.64539C58.312 6.08272 59.4507 7.22139 60.888 7.22139C62.288 7.22139 63.4267 6.08272 63.4267 4.64539C63.4267 3.20806 62.288 2.06939 60.888 2.06939ZM91.6693 1.60272H87.7307C87.5627 1.60272 87.4133 1.75206 87.4133 1.92006V9.55472H81.2347V1.92006C81.2347 1.75206 81.0853 1.60272 80.9173 1.60272H76.9413C76.7733 1.60272 76.624 1.75206 76.624 1.92006V22.6587C76.624 22.8267 76.792 22.9761 76.9413 22.9761H80.9173C81.0853 22.9761 81.2347 22.8267 81.2347 22.6587V13.7921H87.4133L87.376 22.6587C87.376 22.8267 87.5253 22.9761 87.6933 22.9761H91.6693C91.8373 22.9761 91.9867 22.8267 91.9867 22.6587V1.92006C91.9867 1.75206 91.8373 1.60272 91.6693 1.60272ZM56.4453 10.7867V21.5014C56.4453 21.5761 56.4267 21.7067 56.3333 21.7441C56.3333 21.7441 54 23.4054 50.1547 23.4054C45.5067 23.4054 40 21.9494 40 12.3547C40 2.76006 44.816 0.78139 49.52 0.800057C53.5893 0.800057 55.232 1.71472 55.4933 1.88272C55.568 1.97606 55.6053 2.05072 55.6053 2.14406L54.8213 5.46672C54.8213 5.63472 54.6533 5.84006 54.448 5.78406C53.776 5.57872 52.768 5.16806 50.3973 5.16806C47.6533 5.16806 44.704 5.95206 44.704 12.1307C44.704 18.3094 47.504 19.0374 49.52 19.0374C51.2373 19.0374 51.8533 18.8321 51.8533 18.8321V14.5387H49.1093C48.904 14.5387 48.7547 14.3894 48.7547 14.2214V10.7867C48.7547 10.6187 48.904 10.4694 49.1093 10.4694H56.0907C56.296 10.4694 56.4453 10.6187 56.4453 10.7867Z"
    fill="white"
  />
    <path
    fill-rule="evenodd"
    clip-rule="evenodd"
    d="M12 0C5.37 0 0 5.37 0 12C0 17.31 3.435 21.795 8.205 23.385C8.805 23.49 9.03 23.13 9.03 22.815C9.03 22.53 9.015 21.585 9.015 20.58C6 21.135 5.22 19.845 4.98 19.17C4.845 18.825 4.26 17.76 3.75 17.475C3.33 17.25 2.73 16.695 3.735 16.68C4.68 16.665 5.355 17.55 5.58 17.91C6.66 19.725 8.385 19.215 9.075 18.9C9.18 18.12 9.495 17.595 9.84 17.295C7.17 16.995 4.38 15.96 4.38 11.37C4.38 10.065 4.845 8.985 5.61 8.145C5.49 7.845 5.07 6.615 5.73 4.965C5.73 4.965 6.735 4.65 9.03 6.195C9.99 5.925 11.01 5.79 12.03 5.79C13.05 5.79 14.07 5.925 15.03 6.195C17.325 4.635 18.33 4.965 18.33 4.965C18.99 6.615 18.57 7.845 18.45 8.145C19.215 8.985 19.68 10.05 19.68 11.37C19.68 15.975 16.875 16.995 14.205 17.295C14.64 17.67 15.015 18.39 15.015 19.515C15.015 21.12 15 22.41 15 22.815C15 23.13 15.225 23.505 15.825 23.385C18.2072 22.5807 20.2772 21.0497 21.7437 19.0074C23.2101 16.965 23.9993 14.5143 24 12C24 5.37 18.63 0 12 0Z"
    fill="white"
  />
    </svg>
